<svg width="17" height="17" viewBox="0 0 17 17" fill="none" xmlns="http://www.w3.org/2000/svg">
<path d="M4.535 0.616996C3.495 0.352996 2.405 0.464996 1.551 0.942996C0.680997 1.429 0.0709967 2.291 0.0409967 3.444C-0.0050033 5.246 0.411997 7.664 2.068 10.502C3.703 13.305 5.508 14.985 7.006 15.983C7.952 16.614 8.997 16.631 9.89 16.22C10.77 15.815 11.484 15.006 11.855 14.003C11.9473 13.7535 11.9844 13.487 11.9637 13.2218C11.943 12.9566 11.865 12.6991 11.735 12.467L10.781 10.764C10.4876 10.2403 10.0155 9.83974 9.45114 9.63538C8.88674 9.43103 8.26765 9.43657 7.707 9.651L7.041 9.906C6.718 10.029 6.421 9.972 6.253 9.806C5.688 9.251 5.284 8.498 5.101 7.686C5.043 7.43 5.161 7.128 5.443 6.915L6.044 6.461C6.52987 6.09436 6.86529 5.56306 6.98736 4.96674C7.10942 4.37042 7.00973 3.75005 6.707 3.222L5.735 1.527C5.60623 1.30259 5.43363 1.10638 5.22747 0.950049C5.02132 0.793716 4.78582 0.680451 4.535 0.616996ZM1.041 3.47C1.061 2.696 1.453 2.143 2.039 1.815C2.641 1.478 3.463 1.375 4.289 1.585C4.534 1.647 4.742 1.805 4.868 2.024L5.839 3.719C6.02061 4.0357 6.08049 4.40777 6.0074 4.76546C5.93432 5.12316 5.73329 5.44192 5.442 5.662L4.841 6.116C4.321 6.508 3.961 7.18 4.125 7.905C4.347 8.887 4.838 9.818 5.552 10.519C6.074 11.031 6.818 11.061 7.398 10.839L8.064 10.584C8.40049 10.4552 8.7721 10.4518 9.11087 10.5745C9.44965 10.6971 9.73296 10.9376 9.909 11.252L10.862 12.955C10.982 13.169 11.002 13.425 10.917 13.655C10.627 14.44 10.082 15.029 9.472 15.31C8.875 15.585 8.2 15.577 7.561 15.15C6.19 14.236 4.491 12.668 2.931 9.997C1.37 7.318 0.999997 5.084 1.042 3.471L1.041 3.47Z" fill="#98A2B3"/>
<path d="M10.743 0.563019C10.6271 0.498571 10.4903 0.482804 10.3628 0.519186C10.2353 0.555568 10.1274 0.641119 10.063 0.757019C9.99855 0.872919 9.98278 1.00967 10.0192 1.1372C10.0555 1.26472 10.1411 1.37257 10.257 1.43702L10.641 1.65102C11.8406 2.31742 12.861 3.26437 13.6151 4.41092C14.3691 5.55748 14.8343 6.86956 14.971 8.23502L15.003 8.55002C15.0068 8.61744 15.0242 8.6834 15.0541 8.74391C15.0841 8.80443 15.126 8.85825 15.1773 8.90213C15.2287 8.946 15.2883 8.97903 15.3528 8.99921C15.4172 9.01939 15.4851 9.02631 15.5523 9.01956C15.6195 9.0128 15.6846 8.9925 15.7437 8.95988C15.8028 8.92727 15.8547 8.88302 15.8963 8.82979C15.9379 8.77657 15.9682 8.71548 15.9855 8.65021C16.0028 8.58494 16.0067 8.51684 15.997 8.45002L15.966 8.13602C15.8134 6.60961 15.2935 5.14285 14.4506 3.86114C13.6077 2.57943 12.467 1.52089 11.126 0.776019L10.743 0.563019V0.563019Z" fill="#98A2B3"/>
<path d="M9.571 3.24288C9.63931 3.12925 9.74995 3.0474 9.87859 3.01534C10.0072 2.98327 10.1434 3.00361 10.257 3.07188L10.381 3.14588C11.188 3.62994 11.8803 4.28346 12.41 5.06127C12.9397 5.83908 13.2942 6.72264 13.449 7.65088L13.493 7.91788C13.5056 7.98335 13.5049 8.05068 13.4911 8.11591C13.4773 8.18113 13.4506 8.24294 13.4125 8.29768C13.3744 8.35242 13.3258 8.399 13.2695 8.43467C13.2132 8.47034 13.1503 8.49438 13.0845 8.50539C13.0188 8.51639 12.9515 8.51413 12.8866 8.49874C12.8217 8.48336 12.7606 8.45515 12.7068 8.41578C12.6529 8.37641 12.6076 8.32668 12.5733 8.26951C12.5389 8.21234 12.5164 8.14888 12.507 8.08288L12.462 7.81588C12.3311 7.03052 12.0313 6.28293 11.5833 5.62478C11.1353 4.96662 10.5497 4.41358 9.867 4.00388L9.743 3.92888C9.68666 3.89514 9.63751 3.85062 9.59837 3.79789C9.55923 3.74515 9.53086 3.68521 9.51489 3.62151C9.49892 3.55781 9.49565 3.49158 9.50528 3.42661C9.51491 3.36165 9.53724 3.29921 9.571 3.24288V3.24288Z" fill="#98A2B3"/>
</svg>
