<svg width="16" height="13" viewBox="0 0 16 13" fill="none" xmlns="http://www.w3.org/2000/svg">
<path d="M0.5 4.0475V10.25C0.5 10.913 0.763392 11.5489 1.23223 12.0178C1.70107 12.4866 2.33696 12.75 3 12.75H13C13.663 12.75 14.2989 12.4866 14.7678 12.0178C15.2366 11.5489 15.5 10.913 15.5 10.25V2.75C15.5 2.08696 15.2366 1.45107 14.7678 0.982233C14.2989 0.513392 13.663 0.25 13 0.25H3C2.33696 0.25 1.70107 0.513392 1.23223 0.982233C0.763392 1.45107 0.5 2.08696 0.5 2.75V4.0475ZM3 1.5H13C13.3315 1.5 13.6495 1.6317 13.8839 1.86612C14.1183 2.10054 14.25 2.41848 14.25 2.75V3.675L8 7.04L1.75 3.675V2.75C1.75 2.41848 1.8817 2.10054 2.11612 1.86612C2.35054 1.6317 2.66848 1.5 3 1.5ZM1.75 5.095L7.70375 8.3C7.7948 8.34901 7.89659 8.37467 8 8.37467C8.10341 8.37467 8.2052 8.34901 8.29625 8.3L14.25 5.095V10.25C14.25 10.5815 14.1183 10.8995 13.8839 11.1339C13.6495 11.3683 13.3315 11.5 13 11.5H3C2.66848 11.5 2.35054 11.3683 2.11612 11.1339C1.8817 10.8995 1.75 10.5815 1.75 10.25V5.095Z" fill="#98A2B3"/>
</svg>
