<svg width="20" height="21" viewBox="0 0 20 21" fill="none" xmlns="http://www.w3.org/2000/svg">
<path d="M6.535 2.617C5.495 2.353 4.405 2.465 3.551 2.943C2.681 3.429 2.071 4.291 2.041 5.444C1.995 7.246 2.412 9.664 4.068 12.502C5.703 15.305 7.508 16.985 9.006 17.983C9.952 18.614 10.997 18.631 11.89 18.22C12.77 17.815 13.484 17.006 13.855 16.003C13.9473 15.7535 13.9844 15.487 13.9637 15.2218C13.943 14.9566 13.865 14.6991 13.735 14.467L12.781 12.764C12.4876 12.2403 12.0155 11.8397 11.4511 11.6354C10.8867 11.431 10.2677 11.4366 9.707 11.651L9.041 11.906C8.718 12.029 8.421 11.972 8.253 11.806C7.688 11.251 7.284 10.498 7.101 9.686C7.043 9.43 7.161 9.128 7.443 8.915L8.044 8.461C8.52987 8.09436 8.86529 7.56306 8.98736 6.96674C9.10942 6.37042 9.00973 5.75005 8.707 5.222L7.735 3.527C7.60623 3.30259 7.43363 3.10638 7.22747 2.95005C7.02132 2.79372 6.78582 2.68045 6.535 2.617ZM3.041 5.47C3.061 4.696 3.453 4.143 4.039 3.815C4.641 3.478 5.463 3.375 6.289 3.585C6.534 3.647 6.742 3.805 6.868 4.024L7.839 5.719C8.02061 6.0357 8.08049 6.40777 8.0074 6.76546C7.93432 7.12316 7.73329 7.44192 7.442 7.662L6.841 8.116C6.321 8.508 5.961 9.18 6.125 9.905C6.347 10.887 6.838 11.818 7.552 12.519C8.074 13.031 8.818 13.061 9.398 12.839L10.064 12.584C10.4005 12.4552 10.7721 12.4518 11.1109 12.5745C11.4497 12.6971 11.733 12.9376 11.909 13.252L12.862 14.955C12.982 15.169 13.002 15.425 12.917 15.655C12.627 16.44 12.082 17.029 11.472 17.31C10.875 17.585 10.2 17.577 9.561 17.15C8.19 16.236 6.491 14.668 4.931 11.997C3.37 9.318 3 7.084 3.042 5.471L3.041 5.47Z" fill="#98A2B3"/>
<path d="M12.743 2.56302C12.6271 2.49857 12.4903 2.4828 12.3628 2.51919C12.2353 2.55557 12.1274 2.64112 12.063 2.75702C11.9985 2.87292 11.9828 3.00967 12.0192 3.1372C12.0555 3.26472 12.1411 3.37257 12.257 3.43702L12.641 3.65102C13.8406 4.31742 14.861 5.26437 15.6151 6.41092C16.3691 7.55748 16.8343 8.86956 16.971 10.235L17.003 10.55C17.0068 10.6174 17.0242 10.6834 17.0541 10.7439C17.0841 10.8044 17.126 10.8582 17.1773 10.9021C17.2287 10.946 17.2883 10.979 17.3528 10.9992C17.4172 11.0194 17.4851 11.0263 17.5523 11.0196C17.6195 11.0128 17.6846 10.9925 17.7437 10.9599C17.8028 10.9273 17.8547 10.883 17.8963 10.8298C17.9379 10.7766 17.9682 10.7155 17.9855 10.6502C18.0028 10.5849 18.0067 10.5168 17.997 10.45L17.966 10.136C17.8134 8.60961 17.2935 7.14285 16.4506 5.86114C15.6077 4.57943 14.467 3.52089 13.126 2.77602L12.743 2.56302V2.56302Z" fill="#98A2B3"/>
<path d="M11.571 5.24288C11.6393 5.12925 11.75 5.0474 11.8786 5.01534C12.0072 4.98327 12.1434 5.00361 12.257 5.07188L12.381 5.14588C13.188 5.62994 13.8803 6.28346 14.41 7.06127C14.9397 7.83908 15.2942 8.72264 15.449 9.65088L15.493 9.91788C15.5056 9.98335 15.5049 10.0507 15.4911 10.1159C15.4773 10.1811 15.4506 10.2429 15.4125 10.2977C15.3744 10.3524 15.3258 10.399 15.2695 10.4347C15.2132 10.4703 15.1503 10.4944 15.0845 10.5054C15.0188 10.5164 14.9515 10.5141 14.8866 10.4987C14.8217 10.4834 14.7606 10.4551 14.7068 10.4158C14.6529 10.3764 14.6076 10.3267 14.5733 10.2695C14.5389 10.2123 14.5164 10.1489 14.507 10.0829L14.462 9.81588C14.3311 9.03052 14.0313 8.28293 13.5833 7.62478C13.1353 6.96662 12.5497 6.41358 11.867 6.00388L11.743 5.92888C11.6867 5.89514 11.6375 5.85062 11.5984 5.79789C11.5592 5.74515 11.5309 5.68521 11.5149 5.62151C11.4989 5.55781 11.4957 5.49158 11.5053 5.42661C11.5149 5.36165 11.5372 5.29921 11.571 5.24288V5.24288Z" fill="#98A2B3"/>
</svg>
