<svg width="56" height="56" viewBox="0 0 56 56" fill="none" xmlns="http://www.w3.org/2000/svg">
<rect x="4" y="4" width="48" height="48" rx="24" fill="#FFEAD5"/>
<path d="M28.001 28.0001L30.829 30.8281M25.172 30.8281L28.001 28.0001L25.172 30.8281ZM30.829 25.1721L28.001 28.0001L30.829 25.1721ZM28.001 28.0001L25.172 25.1721L28.001 28.0001Z" stroke="#E4881E" stroke-width="1.5" stroke-linecap="round" stroke-linejoin="round"/>
<path d="M28 38C33.523 38 38 33.523 38 28C38 22.477 33.523 18 28 18C22.477 18 18 22.477 18 28C18 33.523 22.477 38 28 38Z" stroke="#E4881E" stroke-width="1.5" stroke-linecap="round" stroke-linejoin="round"/>
<rect x="4" y="4" width="48" height="48" rx="24" stroke="#FFF6ED" stroke-width="8"/>
</svg>
