<svg width="56" height="56" viewBox="0 0 56 56" fill="none" xmlns="http://www.w3.org/2000/svg">
<rect x="4" y="4" width="48" height="48" rx="24" fill="#FFEAD5"/>
<path d="M20.3333 31H34.1983C34.3883 30.9999 34.5744 30.9457 34.7347 30.8437C34.895 30.7417 35.023 30.5962 35.1036 30.4241C35.1841 30.252 35.214 30.0605 35.1897 29.8721C35.1654 29.6836 35.0879 29.506 34.9663 29.36L31.3333 25L34.9663 20.64C35.0879 20.494 35.1654 20.3164 35.1897 20.1279C35.214 19.9395 35.1841 19.748 35.1036 19.5759C35.023 19.4038 34.895 19.2583 34.7347 19.1563C34.5744 19.0543 34.3883 19.0001 34.1983 19H20.3333V37" stroke="#E4881E" stroke-width="2" stroke-linecap="round" stroke-linejoin="round"/>
<rect x="4" y="4" width="48" height="48" rx="24" stroke="#FFF6ED" stroke-width="8"/>
</svg>
