<svg width="20" height="21" viewBox="0 0 20 21" fill="none" xmlns="http://www.w3.org/2000/svg">
<path d="M2.5 8.0475V14.25C2.5 14.913 2.76339 15.5489 3.23223 16.0178C3.70107 16.4866 4.33696 16.75 5 16.75H15C15.663 16.75 16.2989 16.4866 16.7678 16.0178C17.2366 15.5489 17.5 14.913 17.5 14.25V6.75C17.5 6.08696 17.2366 5.45107 16.7678 4.98223C16.2989 4.51339 15.663 4.25 15 4.25H5C4.33696 4.25 3.70107 4.51339 3.23223 4.98223C2.76339 5.45107 2.5 6.08696 2.5 6.75V8.0475ZM5 5.5H15C15.3315 5.5 15.6495 5.6317 15.8839 5.86612C16.1183 6.10054 16.25 6.41848 16.25 6.75V7.675L10 11.04L3.75 7.675V6.75C3.75 6.41848 3.8817 6.10054 4.11612 5.86612C4.35054 5.6317 4.66848 5.5 5 5.5V5.5ZM3.75 9.095L9.70375 12.3C9.7948 12.349 9.89659 12.3747 10 12.3747C10.1034 12.3747 10.2052 12.349 10.2963 12.3L16.25 9.095V14.25C16.25 14.5815 16.1183 14.8995 15.8839 15.1339C15.6495 15.3683 15.3315 15.5 15 15.5H5C4.66848 15.5 4.35054 15.3683 4.11612 15.1339C3.8817 14.8995 3.75 14.5815 3.75 14.25V9.095Z" fill="#98A2B3"/>
</svg>
