<svg width="56" height="56" viewBox="0 0 56 56" fill="none" xmlns="http://www.w3.org/2000/svg">
<rect x="4" y="4" width="48" height="48" rx="24" fill="#FFEAD5"/>
<path d="M23.842 18.5404C22.594 18.2236 21.286 18.358 20.2612 18.9316C19.2172 19.5148 18.4852 20.5492 18.4492 21.9328C18.394 24.0952 18.8944 26.9968 20.8816 30.4024C22.8436 33.766 25.0096 35.782 26.8072 36.9796C27.9424 37.7368 29.1964 37.7572 30.268 37.264C31.324 36.778 32.1808 35.8072 32.626 34.6036C32.7368 34.3042 32.7813 33.9844 32.7564 33.6662C32.7316 33.3479 32.6379 33.0389 32.482 32.7604L31.3372 30.7168C30.9851 30.0884 30.4187 29.6077 29.7414 29.3625C29.0641 29.1172 28.3212 29.1239 27.6484 29.3812L26.8492 29.6872C26.4616 29.8348 26.1052 29.7664 25.9036 29.5672C25.2256 28.9012 24.7408 27.9976 24.5212 27.0232C24.4516 26.716 24.5932 26.3536 24.9316 26.098L25.6528 25.5532C26.2358 25.1132 26.6384 24.4757 26.7848 23.7601C26.9313 23.0445 26.8117 22.3001 26.4484 21.6664L25.282 19.6324C25.1275 19.3631 24.9204 19.1277 24.673 18.9401C24.4256 18.7525 24.143 18.6165 23.842 18.5404ZM19.6492 21.964C19.6732 21.0352 20.1436 20.3716 20.8468 19.978C21.5692 19.5736 22.5556 19.45 23.5468 19.702C23.8408 19.7764 24.0904 19.966 24.2416 20.2288L25.4068 22.2628C25.6247 22.6428 25.6966 23.0893 25.6089 23.5186C25.5212 23.9478 25.2799 24.3303 24.9304 24.5944L24.2092 25.1392C23.5852 25.6096 23.1532 26.416 23.35 27.286C23.6164 28.4644 24.2056 29.5816 25.0624 30.4228C25.6888 31.0372 26.5816 31.0732 27.2776 30.8068L28.0768 30.5008C28.4806 30.3462 28.9265 30.3422 29.333 30.4894C29.7396 30.6366 30.0796 30.9252 30.2908 31.3024L31.4344 33.346C31.5784 33.6028 31.6024 33.91 31.5004 34.186C31.1524 35.128 30.4984 35.8348 29.7664 36.172C29.05 36.502 28.24 36.4924 27.4732 35.98C25.828 34.8832 23.7892 33.0016 21.9172 29.7964C20.044 26.5816 19.6 23.9008 19.6504 21.9652L19.6492 21.964Z" fill="#E4881E"/>
<path d="M31.2916 18.4755C31.1525 18.3982 30.9884 18.3793 30.8354 18.4229C30.6823 18.4666 30.5529 18.5692 30.4756 18.7083C30.3982 18.8474 30.3793 19.0115 30.423 19.1645C30.4666 19.3176 30.5693 19.447 30.7084 19.5243L31.1692 19.7811C32.6087 20.5808 33.8332 21.7171 34.7381 23.093C35.6429 24.4689 36.2012 26.0434 36.3652 27.6819L36.4036 28.0599C36.4081 28.1408 36.429 28.22 36.4649 28.2926C36.5009 28.3652 36.5512 28.4298 36.6128 28.4825C36.6744 28.5351 36.746 28.5747 36.8233 28.599C36.9007 28.6232 36.9821 28.6315 37.0627 28.6234C37.1433 28.6153 37.2215 28.5909 37.2924 28.5518C37.3634 28.5126 37.4257 28.4595 37.4756 28.3957C37.5254 28.3318 37.5618 28.2585 37.5826 28.1802C37.6034 28.1018 37.6081 28.0201 37.5964 27.9399L37.5592 27.5631C37.3761 25.7314 36.7522 23.9713 35.7407 22.4333C34.7293 20.8952 33.3604 19.625 31.7512 18.7311L31.2916 18.4755Z" fill="#E4881E"/>
<path d="M29.8852 21.6917C29.9672 21.5554 30.1 21.4572 30.2543 21.4187C30.4087 21.3802 30.572 21.4046 30.7084 21.4865L30.8572 21.5753C31.8256 22.1562 32.6564 22.9404 33.292 23.8738C33.9277 24.8072 34.3531 25.8675 34.5388 26.9813L34.5916 27.3017C34.6067 27.3803 34.6059 27.4611 34.5894 27.5394C34.5728 27.6177 34.5407 27.6918 34.495 27.7575C34.4494 27.8232 34.391 27.8791 34.3234 27.9219C34.2558 27.9647 34.1803 27.9936 34.1014 28.0068C34.0225 28.02 33.9418 28.0173 33.8639 27.9988C33.7861 27.9803 33.7127 27.9465 33.6481 27.8992C33.5836 27.852 33.5291 27.7923 33.4879 27.7237C33.4467 27.6551 33.4197 27.579 33.4084 27.4997L33.3544 27.1793C33.1974 26.2369 32.8376 25.3398 32.3 24.55C31.7623 23.7602 31.0596 23.0966 30.2404 22.6049L30.0916 22.5149C30.024 22.4745 29.965 22.421 29.9181 22.3578C29.8711 22.2945 29.837 22.2225 29.8179 22.1461C29.7987 22.0697 29.7948 21.9902 29.8063 21.9122C29.8179 21.8343 29.8447 21.7593 29.8852 21.6917Z" fill="#E4881E"/>
<rect x="4" y="4" width="48" height="48" rx="24" stroke="#FFF6ED" stroke-width="8"/>
</svg>
