<svg width="56" height="56" viewBox="0 0 56 56" fill="none" xmlns="http://www.w3.org/2000/svg">
<rect x="4" y="4" width="48" height="48" rx="24" fill="#FFEAD5"/>
<path d="M37.71 23.3801L32.62 18.2901C32.4326 18.1038 32.1792 17.9993 31.915 17.9993C31.6508 17.9993 31.3974 18.1038 31.21 18.2901C31.1163 18.383 31.0419 18.4936 30.9911 18.6155C30.9403 18.7373 30.9142 18.868 30.9142 19.0001C30.9142 19.1321 30.9403 19.2628 30.9911 19.3846C31.0419 19.5065 31.1163 19.6171 31.21 19.7101L33 21.5401L27.58 27.0001L26.58 26.0001C26.3013 25.7204 25.9701 25.4985 25.6055 25.3471C25.2408 25.1956 24.8499 25.1177 24.455 25.1177C24.0602 25.1177 23.6692 25.1956 23.3046 25.3471C22.9399 25.4985 22.6087 25.7204 22.33 26.0001L18.88 29.4201C18.6002 29.6996 18.3783 30.0316 18.2273 30.3972C18.0763 30.7627 17.999 31.1545 18 31.5501V35.0001C18 35.7957 18.3161 36.5588 18.8787 37.1214C19.4413 37.684 20.2044 38.0001 21 38.0001H24.45C24.8455 38.001 25.2373 37.9238 25.6029 37.7728C25.9684 37.6217 26.3005 37.3999 26.58 37.1201L30 33.6901C30.2797 33.4114 30.5016 33.0802 30.653 32.7155C30.8044 32.3509 30.8824 31.9599 30.8824 31.5651C30.8824 31.1702 30.8044 30.7793 30.653 30.4146C30.5016 30.0499 30.2797 29.7188 30 29.4401L29 28.4401L34.46 23.0001L36.29 24.8301C36.383 24.9238 36.4936 24.9982 36.6154 25.049C36.7373 25.0997 36.868 25.1259 37 25.1259C37.132 25.1259 37.2627 25.0997 37.3846 25.049C37.5064 24.9982 37.617 24.9238 37.71 24.8301C37.8083 24.7366 37.8867 24.6242 37.9402 24.4996C37.9937 24.3749 38.0213 24.2407 38.0213 24.1051C38.0213 23.9694 37.9937 23.8352 37.9402 23.7106C37.8867 23.5859 37.8083 23.4735 37.71 23.3801ZM28.6 32.2701L25.16 35.7101C25.0666 35.8027 24.9558 35.8761 24.8339 35.9258C24.7121 35.9756 24.5816 36.0008 24.45 36.0001H21C20.7348 36.0001 20.4804 35.8947 20.2929 35.7072C20.1054 35.5196 20 35.2653 20 35.0001V31.5501C19.9992 31.4185 20.0245 31.288 20.0742 31.1662C20.124 31.0443 20.1973 30.9335 20.29 30.8401L23.73 27.4001C23.9174 27.2138 24.1708 27.1093 24.435 27.1093C24.6992 27.1093 24.9526 27.2138 25.14 27.4001L26.14 28.4001L25.25 29.3001C25.0638 29.4874 24.9592 29.7409 24.9592 30.0051C24.9592 30.2692 25.0638 30.5227 25.25 30.7101C25.3481 30.8077 25.4655 30.8838 25.5946 30.9338C25.7237 30.9837 25.8617 31.0063 26 31.0001C26.2623 30.999 26.5137 30.8948 26.7 30.7101L27.6 29.8201L28.6 30.8201C28.6983 30.9135 28.7767 31.0259 28.8302 31.1506C28.8837 31.2752 28.9113 31.4094 28.9113 31.5451C28.9113 31.6807 28.8837 31.8149 28.8302 31.9396C28.7767 32.0642 28.6983 32.1766 28.6 32.2701Z" fill="#E4881E"/>
<rect x="4" y="4" width="48" height="48" rx="24" stroke="#FFF6ED" stroke-width="8"/>
</svg>
